# xmcd CD database file
#
# Track frame offsets:
#	187
#	27197
#	46022
#	69435
#	87470
#	99712
#	114780
#	137912
#	156542
#	175485
#	192732
#	210815
#
# Disc length: 3024 seconds
#
# Revision: 0
# Processed by: cddbd v1.5.1PL2 Copyright (c) Steve Scherf et al.
# Submitted via: CDex 1.51
#
DISCID=a40bce0c
DTITLE=SENSHUKAI - ROCK MOVIE 5 Hip
DYEAR=1996
DGENRE=Rock
TTITLE0=PART OF ME, PART OF YOU/GLENN FREY
TTITLE1=I CAN DREAM ABOUT YOU/DAN HARTMAN
TTITLE2=MAGIC CARPET RIDE/BEDLAM
TTITLE3=SENDIN' OUT A MESSAGE/THE JETS
TTITLE4=YOU NEVER CAN TELL/CHUCK BERRY
TTITLE5=AND 7 IS/LIQUID JESUS
TTITLE6=WHAT DO YOU WANT THE GIRL TO DO/VINCE GILL featuring Little Feat
TTITLE7=(YOU'LL ALWAYS BE)MY HEART AND SOUL/STEPHEN BISHOP
TTITLE8=INTO THE NIGHT/B.B. KING
TTITLE9=WEIRD SCIENCE/OINGO BOINGO
TTITLE10=MUSTANG SALLY/THE COMMITMENTS
TTITLE11=JOY TO THE WORLD/THREE DOG NIGHT
EXTD=YEAR: 1996
EXTT0=
EXTT1=
EXTT2=
EXTT3=
EXTT4=
EXTT5=
EXTT6=
EXTT7=
EXTT8=
EXTT9=
EXTT10=
EXTT11=
PLAYORDER=
